<?xml version="1.0" encoding="utf-8"?>
<!-- Generator: Adobe Illustrator 21.0.0, SVG Export Plug-In . SVG Version: 6.00 Build 0)  -->
<svg version="1.1" id="Capa_1" xmlns="http://www.w3.org/2000/svg" xmlns:xlink="http://www.w3.org/1999/xlink" x="0px" y="0px"
	 viewBox="0 0 209.1 108.7" style="enable-background:new 0 0 209.1 108.7;" xml:space="preserve">
<style type="text/css">
	.st0{fill:#365FA8;}
	.st1{fill:#005FAE;}
	.st2{fill:#FFFFFF;}
</style>
<polygon class="st0" points="0,0 179.2,0 209.1,29.9 209.1,108.7 29.9,108.7 0,78.9 "/>
<polygon class="st1" points="0,0 179.2,0 209.1,29.9 209.1,108.7 29.9,108.7 0,78.9 "/>
<g>
	<path class="st2" d="M157.2,70.6L157.2,70.6c3.9,0,7-1.4,9.6-4.2c2.5-2.8,3.8-6.3,3.8-10.6c0-5-1.4-9.2-4.2-12.5s-6.3-5-10.5-5
		c-3.8,0-7,1.4-9.6,4.2s-3.8,6.3-3.8,10.6c0,5,1.4,9.2,4.2,12.5C149.5,68.9,153,70.6,157.2,70.6 M155.9,75.6L155.9,75.6
		c-5.8,0-10.6-2-14.4-6.1c-3.8-4.1-5.7-9.2-5.7-15.3c0-6,2-10.9,6.1-14.9s9.2-5.9,15.3-5.9c5.8,0,10.6,2,14.4,6.1
		c3.8,4.1,5.7,9.2,5.7,15.4c0,5.9-2,10.9-6.1,14.8C167.2,73.6,162.1,75.6,155.9,75.6z M114.2,44.7L114.2,44.7L114.2,44.7l5.4,12.4
		h-10.7L114.2,44.7z M100.5,63.1L100.5,63.1c-1.6,3.3-2.9,5.8-3.9,7.6c-1.1,1.7-2.1,3.2-3.2,4.3h5.1h5.1c-0.2-0.9-0.1-2.6,0.5-4.9
		s1.4-4.7,2.4-7.1l0.2-0.6h15.1l1.3,3.2c0.9,2,1.5,3.9,1.9,5.7c0.4,1.7,0.5,3,0.3,3.8h5.1h5.1c-1-1-2-2.4-3-4.1s-2.4-4.3-4-7.8
		l-14-29.9l0,0L100.5,63.1z M77.9,55.4L77.9,55.4c3.4,0,5.8-0.7,7.4-2.1c1.6-1.4,2.4-3.6,2.4-6.6c0-2.9-0.7-5.1-2.2-6.6
		s-3.7-2.2-6.6-2.2h-1C77.9,37.9,77.9,55.4,77.9,55.4z M71.7,63.1L71.7,63.1V45.8c0-2.6-0.1-4.7-0.3-6.5c-0.2-1.7-0.6-3.5-1.1-5.4
		h4.5h5.1c4.9,0,8.5,1,10.9,3s3.6,5,3.6,9.1c0,4.3-1.4,7.5-4.3,9.5c-2.7,1.9-6.8,2.9-12.3,3V63c0,2.6,0.1,4.7,0.3,6.5
		c0.2,1.7,0.6,3.5,1.1,5.4h-4.5h-4.5c0.5-1.8,0.9-3.6,1.1-5.3C71.6,67.9,71.7,65.7,71.7,63.1z M39.4,45.8v10.5
		c0,4.8,0.8,8.4,2.5,10.7c1.6,2.3,4.2,3.5,7.5,3.5c3.1,0,5.4-0.9,7-2.8c1.5-1.9,2.3-4.7,2.3-8.4V45.8c0-2.6-0.1-4.7-0.3-6.5
		c-0.2-1.7-0.6-3.5-1.1-5.4h4.5h4.5c-0.5,1.8-0.9,3.6-1.1,5.4c-0.2,1.7-0.3,3.9-0.3,6.5V63c0,2.6,0.1,4.7,0.3,6.5
		c0.2,1.7,0.6,3.5,1.1,5.4h-3.5h-3.5v-4.5l-1.1,0.9c-3.6,2.8-7.5,4.3-11.6,4.3c-4.4,0-7.7-1.5-10-4.5s-3.4-7.5-3.4-13.3v-12
		c0-2.6-0.1-4.7-0.3-6.5c-0.2-1.7-0.6-3.5-1.1-5.4h4.5h4.5c-0.5,1.8-0.9,3.6-1.1,5.4C39.5,41.1,39.4,43.2,39.4,45.8z"/>
</g>
</svg>
